<?xml version="1.0" encoding="UTF-8"?>
<!-- Generator: visioncortex VTracer 0.6.12 -->
<svg version="1.1" xmlns="http://www.w3.org/2000/svg" width="885" height="245">
<path d="M0 0 C7.762 6.587 10.338 13.897 11.275 23.949 C11.375 26.911 11.39 29.857 11.363 32.82 C11.364 33.353 11.364 33.353 11.365 36.05 C11.362 38.277 11.353 40.504 11.336 42.73 C11.312 46.151 11.316 49.571 11.322 52.992 C11.317 55.164 11.31 57.336 11.301 59.508 C11.302 60.532 11.303 61.556 11.304 62.61 C11.294 63.553 11.284 64.495 11.275 65.465 C11.272 65.88 11.272 65.88 11.261 67.98 C11 70 11 70 9 72 C5.519 72.45 2.006 72.324 -1.5 72.312 C-1.988 72.321 -1.988 72.321 -4.457 72.361 C-5.389 72.362 -6.321 72.363 -7.281 72.363 C-8.138 72.366 -8.994 72.369 -9.877 72.372 C-10.578 72.249 -11.278 72.127 -12 72 C-12.66 71.01 -13.32 70.02 -14 69 C-14.32 69.227 -14.32 69.227 -15.938 70.375 C-24.217 74.768 -34.145 75.258 -43.094 72.684 C-49.527 70.377 -54.316 66.771 -58 61 C-60.741 54.227 -61.229 46.731 -59.383 39.625 C-56.699 33.544 -51.737 28.78 -45.762 25.934 C-36.344 22.567 -23.661 21.045 -14 24 C-14.854 21.051 -15.389 19.401 -18 17.688 C-25.608 15.944 -31.616 16.772 -38.676 20.027 C-41.202 21.085 -43.26 21.806 -46 22 C-47.914 20.707 -47.914 20.707 -49.625 18.812 C-50.217 18.168 -50.808 17.523 -51.418 16.859 C-53.033 14.961 -54.598 13.062 -56 11 C-56.33 13.64 -56.66 16.28 -57 19 C-60.244 19.837 -63.117 19.998 -66.438 19.875 C-70.695 19.847 -73.451 20.465 -77 23 C-80.382 28.191 -80.455 32.751 -80.477 38.738 C-80.484 39.199 -80.484 39.199 -80.524 41.53 C-80.571 44.458 -80.599 47.385 -80.625 50.312 C-80.661 53.258 -80.702 56.203 -80.748 59.148 C-80.775 60.978 -80.796 62.807 -80.811 64.637 C-80.889 70.889 -80.889 70.889 -82 72 C-83.696 72.099 -85.395 72.131 -87.094 72.133 C-88.124 72.134 -89.154 72.135 -90.215 72.137 C-90.757 72.135 -90.757 72.135 -93.5 72.125 C-94.584 72.129 -95.668 72.133 -96.785 72.137 C-97.815 72.135 -98.845 72.134 -99.906 72.133 C-100.858 72.132 -101.81 72.131 -102.791 72.129 C-105 72 -105 72 -106 71 C-106.105 68.741 -106.139 66.479 -106.145 64.217 C-106.147 63.863 -106.147 63.863 -106.155 62.069 C-106.165 59.714 -106.167 57.359 -106.168 55.004 C-106.171 53.373 -106.175 51.743 -106.178 50.113 C-106.184 46.69 -106.186 43.268 -106.185 39.845 C-106.185 35.452 -106.199 31.06 -106.216 26.667 C-106.227 23.298 -106.229 19.929 -106.229 16.56 C-106.23 14.94 -106.234 13.32 -106.242 11.7 C-106.252 9.437 -106.249 7.175 -106.243 4.912 C-106.244 3.623 -106.246 2.334 -106.247 1.005 C-106 -2 -106 -2 -104 -4 C-100.542 -4.477 -97.05 -4.37 -93.562 -4.375 C-93.079 -4.387 -93.079 -4.387 -90.631 -4.449 C-89.702 -4.453 -88.773 -4.457 -87.816 -4.461 C-87.391 -4.465 -87.391 -4.465 -85.237 -4.486 C-83 -4 -83 -4 -81.199 -1.971 C-80.803 -1.321 -80.408 -0.67 -80 0 C-79.237 -0.639 -78.474 -1.279 -77.688 -1.938 C-73.406 -5.223 -70.143 -5.136 -64.875 -5.125 C-64.245 -5.126 -64.245 -5.126 -61.055 -5.133 C-58 -5 -58 -5 -57 -4 C-56.767 -2.318 -56.587 -0.629 -56.438 1.062 C-56.354 1.982 -56.27 2.901 -56.184 3.848 C-56.123 4.558 -56.062 5.268 -56 6 C-55.466 5.541 -54.933 5.082 -54.383 4.609 C-39.985 -7.248 -16.163 -11.369 0 0 Z M-34 44 C-35.375 46.688 -35.375 46.688 -36 49 C-33.942 51.655 -32.288 53.709 -28.91 54.473 C-23.182 54.698 -19.644 53.29 -15 50 C-13.522 47.043 -13.94 44.258 -14 41 C-16.208 40.918 -18.416 40.861 -20.625 40.812 C-21.855 40.778 -23.085 40.743 -24.352 40.707 C-28.314 41.025 -30.655 41.889 -34 44 Z " fill="#4E2C53" transform="translate(233,79)"/>
<path d="M0 0 C5.295 4.644 8.599 10.181 9.088 17.329 C9.154 20.639 9.157 23.943 9.137 27.254 C9.136 28.464 9.136 29.674 9.135 30.92 C9.132 33.47 9.124 36.019 9.112 38.568 C9.094 42.488 9.092 46.407 9.092 50.326 C9.087 52.802 9.081 55.278 9.074 57.754 C9.073 58.933 9.072 60.112 9.071 61.327 C9.064 62.409 9.058 63.49 9.052 64.605 C9.048 65.561 9.044 66.518 9.04 67.504 C8.906 69.672 8.906 69.672 7.906 70.672 C4.476 70.924 1.032 70.857 -2.406 70.859 C-3.37 70.872 -4.333 70.884 -5.326 70.896 C-6.256 70.898 -7.186 70.9 -8.145 70.902 C-8.997 70.906 -9.849 70.911 -10.728 70.915 C-13.094 70.672 -13.094 70.672 -15.188 69.575 C-15.817 69.277 -16.446 68.979 -17.094 68.672 C-20.531 69.984 -20.531 69.984 -24.094 71.672 C-32.446 74.155 -41.149 72.888 -49.094 69.672 C-54.729 66.541 -58.53 62.6 -61.094 56.672 C-62.716 48.362 -62.621 40.215 -57.969 32.922 C-52.485 25.97 -44.884 23.484 -36.406 22.047 C-29.327 21.273 -22.055 21.068 -15.094 22.672 C-18.719 16.797 -18.719 16.797 -22.094 15.672 C-29.645 14.917 -35.506 15.857 -42.094 19.672 C-42.259 19.837 -42.259 19.837 -43.094 20.672 C-45.324 21.109 -45.324 21.109 -48.094 20.672 C-50.106 18.698 -51.72 16.891 -53.406 14.672 C-53.861 14.1 -54.315 13.527 -54.783 12.938 C-55.9 11.526 -56.999 10.1 -58.094 8.672 C-58.156 9.311 -58.156 9.311 -58.469 12.547 C-58.844 16.422 -58.844 16.422 -61.094 18.672 C-63.922 18.762 -63.922 18.762 -67.344 18.609 C-76.22 18.511 -76.22 18.511 -80.094 21.672 C-83.105 27.29 -83.546 31.983 -83.57 38.289 C-83.586 39.187 -83.601 40.085 -83.618 41.01 C-83.665 43.855 -83.693 46.701 -83.719 49.547 C-83.755 52.414 -83.796 55.281 -83.841 58.148 C-83.869 59.928 -83.89 61.707 -83.905 63.487 C-83.983 69.561 -83.983 69.561 -85.094 70.672 C-86.716 70.771 -88.343 70.803 -89.969 70.805 C-90.954 70.806 -91.938 70.807 -92.953 70.809 C-93.99 70.805 -95.026 70.801 -96.094 70.797 C-96.612 70.799 -96.612 70.799 -99.234 70.809 C-100.219 70.807 -101.204 70.806 -102.219 70.805 C-103.129 70.804 -104.039 70.802 -104.977 70.801 C-107.094 70.672 -107.094 70.672 -108.094 69.672 C-108.193 67.377 -108.222 65.079 -108.223 62.781 C-108.225 62.061 -108.227 61.341 -108.228 60.599 C-108.233 58.206 -108.23 55.814 -108.227 53.422 C-108.227 51.767 -108.228 50.111 -108.229 48.456 C-108.231 44.982 -108.229 41.509 -108.224 38.035 C-108.218 33.573 -108.222 29.11 -108.228 24.647 C-108.231 21.228 -108.23 17.809 -108.228 14.389 C-108.227 12.743 -108.228 11.097 -108.23 9.452 C-108.233 7.155 -108.229 4.859 -108.223 2.562 C-108.222 1.253 -108.222 -0.056 -108.221 -1.405 C-108.094 -4.328 -108.094 -4.328 -107.094 -5.328 C-105.459 -5.415 -103.821 -5.435 -102.184 -5.426 C-101.194 -5.423 -100.205 -5.419 -99.186 -5.416 C-98.145 -5.408 -97.104 -5.399 -96.031 -5.391 C-95.509 -5.388 -95.509 -5.388 -92.865 -5.377 C-90.275 -5.365 -87.684 -5.349 -85.094 -5.328 C-84.434 -4.008 -83.774 -2.688 -83.094 -1.328 C-82.63 -1.648 -82.63 -1.648 -80.281 -3.266 C-75.611 -6.287 -72.447 -6.464 -66.969 -6.453 C-66.338 -6.454 -66.338 -6.454 -63.148 -6.461 C-60.094 -6.328 -60.094 -6.328 -59.094 -5.328 C-58.861 -3.646 -58.681 -1.957 -58.531 -0.266 C-58.447 0.653 -58.364 1.573 -58.277 2.52 C-58.217 3.23 -58.156 3.94 -58.094 4.672 C-57.655 4.297 -57.217 3.922 -56.766 3.535 C-41.05 -9.146 -16.923 -12.386 0 0 Z M-36.094 42.672 C-37.156 45.672 -37.156 45.672 -37.094 48.672 C-35.094 51.672 -35.094 51.672 -32.094 52.672 C-26.47 53.041 -22.959 52.84 -18.094 49.672 C-15.507 47.172 -15.105 46.176 -15.023 42.535 C-15.047 41.59 -15.07 40.645 -15.094 39.672 C-30.943 39.078 -30.943 39.078 -36.094 42.672 Z " fill="#4E2C53" transform="translate(500.09375,80.328125)"/>
<path d="M0 0 C5.464 3.962 10.438 8.626 14.188 14.25 C14.332 16.602 14.332 16.602 13.188 19.25 C10.618 21.399 7.791 22.991 4.875 24.625 C4.102 25.088 3.329 25.551 2.533 26.027 C-3.181 29.319 -3.181 29.319 -5.958 29.014 C-7.812 28.25 -7.812 28.25 -9.562 25.938 C-13.228 21.559 -18.257 19.39 -23.812 18.25 C-31.544 17.726 -37.618 19.14 -44.125 23.438 C-51.327 30.974 -52.269 39.312 -52.105 49.402 C-51.709 54.607 -50.206 58.663 -47.812 63.25 C-47.473 63.977 -47.134 64.704 -46.785 65.453 C-45.48 67.864 -44.345 68.223 -41.812 69.25 C-40.74 69.766 -39.667 70.281 -38.562 70.812 C-31.473 73.769 -25.004 73.741 -17.812 71.25 C-12.742 68.433 -9.656 65.781 -7.812 60.25 C-14.307 59.369 -20.537 59.219 -27.09 59.41 C-29.812 59.25 -29.812 59.25 -31.812 57.25 C-32.055 55.203 -32.055 55.203 -32.043 52.715 C-32.041 51.823 -32.039 50.932 -32.037 50.014 C-32.031 49.547 -32.031 49.547 -32 47.188 C-31.999 46.251 -31.999 45.314 -31.998 44.35 C-31.953 37.39 -31.953 37.39 -30.812 36.25 C-29.283 36.152 -27.749 36.122 -26.217 36.121 C-25.728 36.119 -25.728 36.119 -23.254 36.111 C-22.191 36.113 -21.127 36.115 -20.031 36.117 C-19.489 36.117 -19.489 36.117 -16.747 36.114 C-14.45 36.114 -12.154 36.115 -9.857 36.12 C-6.328 36.125 -2.799 36.12 0.73 36.113 C2.956 36.114 5.181 36.115 7.406 36.117 C8.47 36.115 9.533 36.113 10.629 36.111 C11.607 36.114 12.584 36.117 13.592 36.121 C14.457 36.121 15.322 36.122 16.214 36.123 C18.188 36.25 18.188 36.25 19.188 37.25 C20.581 53.989 19.846 68.267 9.254 81.844 C1.521 90.848 -8.543 96.119 -20.355 97.734 C-36.885 98.939 -50.37 95.886 -63.25 85 C-73.713 74.812 -78.782 62.655 -79.232 48.102 C-79.348 31.968 -75.353 18.288 -64.066 6.316 C-46.996 -9.334 -19.868 -12.304 0 0 Z " fill="#4D2B52" transform="translate(104.8125,54.75)"/>
<path d="M0 0 C0.985 -0.001 1.97 -0.003 2.984 -0.004 C4.021 -0 5.057 0.004 6.125 0.008 C6.643 0.006 6.643 0.006 9.266 -0.004 C10.25 -0.003 11.235 -0.001 12.25 0 C13.16 0.001 14.07 0.002 15.008 0.003 C17.125 0.133 17.125 0.133 18.125 1.133 C18.226 4.233 18.261 7.31 18.254 10.41 C18.255 10.897 18.255 10.897 18.26 13.361 C18.264 16.598 18.261 19.834 18.258 23.07 C18.258 25.309 18.259 27.547 18.261 29.785 C18.262 34.483 18.26 39.18 18.255 43.878 C18.25 49.914 18.253 55.951 18.259 61.987 C18.263 66.611 18.261 71.235 18.259 75.859 C18.258 78.085 18.259 80.312 18.261 82.538 C18.264 85.644 18.26 88.75 18.254 91.855 C18.256 92.785 18.258 93.715 18.261 94.673 C18.239 101.019 18.239 101.019 17.125 102.133 C13.487 102.412 9.835 102.365 6.188 102.383 C5.159 102.403 4.131 102.424 3.072 102.445 C2.091 102.45 1.109 102.456 0.098 102.461 C-0.355 102.466 -0.355 102.466 -2.644 102.489 C-3.38 102.372 -4.117 102.254 -4.875 102.133 C-5.535 101.143 -6.195 100.153 -6.875 99.133 C-7.394 99.41 -7.914 99.687 -8.449 99.973 C-18.02 104.944 -26.802 105.337 -37.168 102.234 C-46.07 98.612 -52.763 91.102 -56.688 82.445 C-60.664 71.352 -61.083 55.231 -56.199 44.418 C-51.133 35.676 -44.808 28.589 -35.062 25.258 C-25.236 22.749 -17.05 23.918 -7.875 28.133 C-7.545 28.463 -7.215 28.793 -6.875 29.133 C-6.862 28.711 -6.862 28.711 -6.799 26.578 C-6.704 23.46 -6.605 20.343 -6.503 17.225 C-6.459 15.874 -6.418 14.522 -6.378 13.171 C-6.32 11.232 -6.256 9.294 -6.191 7.355 C-6.155 6.188 -6.118 5.02 -6.08 3.817 C-5.735 -0.701 -4.095 0.005 0 0 Z M-30.875 51.133 C-34.176 56.162 -35.641 61.115 -34.875 67.133 C-33.431 73.349 -31.072 76.484 -25.875 80.133 C-21.895 82.123 -17.866 81.45 -13.75 80.133 C-9.81 77.392 -7.609 74.618 -5.875 70.133 C-4.811 63.767 -5.489 58.323 -8.73 52.723 C-11.021 49.541 -13.212 48.354 -16.875 47.133 C-22.375 46.604 -26.748 47.313 -30.875 51.133 Z " fill="#4E2C53" transform="translate(645.875,48.8671875)"/>
<path d="M0 0 C1 0.005 2 0.01 3.031 0.016 C4.111 0.019 5.19 0.022 6.302 0.026 C6.871 0.03 6.871 0.03 9.746 0.051 C10.316 0.053 10.316 0.053 13.201 0.065 C16.028 0.077 18.856 0.093 21.683 0.114 C25.661 8.599 28.766 17.366 31.933 26.176 C32.493 27.725 33.053 29.274 33.613 30.823 C34.973 34.585 36.329 38.349 37.683 42.114 C37.96 41.298 38.237 40.482 38.522 39.642 C39.572 36.554 40.625 33.468 41.681 30.383 C42.133 29.059 42.584 27.734 43.034 26.409 C51.068 2.729 51.068 2.729 53.683 0.114 C55.391 0.026 57.102 0.007 58.812 0.016 C59.329 0.017 59.329 0.017 61.947 0.026 C63.036 0.034 64.124 0.042 65.246 0.051 C65.792 0.053 65.792 0.053 68.556 0.065 C71.265 0.077 73.974 0.093 76.683 0.114 C78.35 5.019 76.703 8.634 74.844 13.199 C74.53 13.997 74.217 14.795 73.894 15.617 C72.858 18.246 71.802 20.867 70.746 23.489 C70.019 25.316 69.292 27.145 68.567 28.973 C66.671 33.738 64.757 38.495 62.837 43.251 C61.703 46.065 60.574 48.882 59.448 51.7 C57.669 56.145 55.88 60.586 54.082 65.024 C53.406 66.691 52.733 68.36 52.063 70.029 C40.775 98.06 40.775 98.06 28.183 104.051 C20.216 106.622 9.36 106.228 1.683 103.114 C1.353 102.784 1.023 102.454 0.683 102.114 C1.107 85.69 1.107 85.69 4.683 82.114 C7.402 82.082 10.107 82.182 12.824 82.274 C16.05 82.093 17.921 81.815 20.683 80.114 C23.035 75.994 23.953 74.331 22.913 69.642 C22.401 68.409 21.862 67.188 21.301 65.977 C21.015 65.307 20.73 64.638 20.436 63.948 C19.499 61.764 18.529 59.596 17.558 57.426 C16.905 55.915 16.254 54.403 15.606 52.89 C14.615 50.576 13.623 48.264 12.621 45.954 C9.377 38.472 6.382 30.903 3.433 23.301 C2.553 21.045 1.673 18.788 0.793 16.531 C0.612 16.066 0.612 16.066 -0.302 13.712 C-0.991 11.948 -1.703 10.193 -2.437 8.447 C-3.422 5.835 -3.547 3.883 -3.317 1.114 C-2.317 0.114 -2.317 0.114 0 0 Z " fill="#8E4D6F" transform="translate(698.316650390625,74.886474609375)"/>
<path d="M0 0 C7.901 6.669 13.46 14.087 15.688 24.312 C15.775 25.668 15.818 27.028 15.82 28.387 C15.822 29.136 15.823 29.886 15.824 30.658 C15.82 31.431 15.816 32.204 15.812 33 C15.816 33.784 15.82 34.569 15.824 35.377 C15.814 41.186 15.814 41.186 14.688 42.312 C13.215 42.435 11.737 42.49 10.26 42.518 C9.319 42.538 8.378 42.558 7.408 42.578 C6.385 42.595 5.362 42.612 4.309 42.629 C3.267 42.65 2.225 42.67 1.152 42.692 C-2.191 42.757 -5.533 42.816 -8.875 42.875 C-11.135 42.918 -13.395 42.962 -15.654 43.006 C-21.207 43.113 -26.76 43.215 -32.312 43.312 C-30.617 48.156 -30.617 48.156 -27.875 49.562 C-27.029 49.81 -26.184 50.058 -25.312 50.312 C-24.322 50.642 -23.332 50.972 -22.312 51.312 C-16.036 51.795 -11.115 50.62 -6.188 46.562 C-4.312 45.312 -4.312 45.312 -2.09 45.469 C1.505 46.561 3.98 48.335 7 50.562 C7.534 50.947 7.534 50.947 10.238 52.891 C12.688 55.312 12.688 55.312 13.281 57.859 C11.901 63.563 5.898 66.898 1.203 69.902 C-8.315 74.878 -20.623 75.754 -31.02 73.09 C-40.75 69.791 -48.734 64.547 -53.949 55.461 C-58.941 44.848 -60.247 32.323 -57.188 20.875 C-53.688 11.203 -46.901 3.019 -37.91 -2.039 C-26.134 -7.486 -10.938 -7.764 0 0 Z M-30.312 19.312 C-31.303 21.293 -32.293 23.273 -33.312 25.312 C-25.062 25.312 -16.812 25.312 -8.312 25.312 C-10.477 19.901 -11.27 18.834 -16.312 16.312 C-21.578 15.369 -25.883 16.222 -30.312 19.312 Z " fill="#4D2B52" transform="translate(373.3125,78.6875)"/>
<path d="M0 0 C6.029 5.074 10.29 10.564 11.723 18.453 C11.998 22.608 11.979 26.751 11.953 30.914 C11.953 32.1 11.952 33.287 11.952 34.509 C11.949 37.005 11.941 39.501 11.928 41.998 C11.91 45.836 11.908 49.674 11.908 53.512 C11.903 55.938 11.897 58.363 11.891 60.789 C11.89 61.943 11.888 63.097 11.887 64.286 C11.881 65.345 11.874 66.403 11.868 67.494 C11.864 68.43 11.86 69.366 11.856 70.33 C11.723 72.453 11.723 72.453 10.723 73.453 C9.027 73.552 7.327 73.584 5.629 73.586 C4.599 73.587 3.569 73.589 2.508 73.59 C1.966 73.588 1.966 73.588 -0.777 73.578 C-1.861 73.582 -2.946 73.586 -4.062 73.59 C-5.092 73.589 -6.122 73.587 -7.184 73.586 C-8.136 73.585 -9.088 73.584 -10.068 73.583 C-12.277 73.453 -12.277 73.453 -13.277 72.453 C-13.374 71.006 -13.402 69.555 -13.403 68.104 C-13.407 67.18 -13.411 66.255 -13.415 65.302 C-13.416 64.295 -13.417 63.288 -13.418 62.25 C-13.436 60.134 -13.456 58.018 -13.477 55.902 C-13.506 52.553 -13.527 49.205 -13.528 45.856 C-13.531 42.633 -13.566 39.411 -13.605 36.188 C-13.598 35.188 -13.591 34.189 -13.584 33.16 C-13.667 28.409 -13.719 26.18 -16.688 22.317 C-20.643 19.47 -22.497 19.922 -27.277 20.453 C-29.59 20.953 -29.59 20.953 -31.277 22.453 C-34.06 28.587 -34.729 33.701 -34.754 40.387 C-34.769 41.305 -34.785 42.224 -34.801 43.17 C-34.848 46.077 -34.876 48.984 -34.902 51.891 C-34.939 54.823 -34.979 57.754 -35.025 60.686 C-35.052 62.504 -35.074 64.323 -35.089 66.141 C-35.167 72.342 -35.167 72.342 -36.277 73.453 C-37.9 73.552 -39.527 73.584 -41.152 73.586 C-42.137 73.587 -43.122 73.589 -44.137 73.59 C-45.173 73.586 -46.21 73.582 -47.277 73.578 C-47.796 73.58 -47.796 73.58 -50.418 73.59 C-51.403 73.589 -52.388 73.587 -53.402 73.586 C-54.312 73.585 -55.222 73.584 -56.16 73.583 C-58.277 73.453 -58.277 73.453 -59.277 72.453 C-59.377 70.158 -59.405 67.86 -59.407 65.562 C-59.408 64.842 -59.41 64.122 -59.412 63.38 C-59.416 60.988 -59.414 58.595 -59.41 56.203 C-59.411 54.548 -59.412 52.893 -59.413 51.237 C-59.415 47.764 -59.412 44.29 -59.408 40.816 C-59.402 36.354 -59.405 31.891 -59.411 27.429 C-59.415 24.009 -59.414 20.59 -59.411 17.171 C-59.41 15.525 -59.411 13.879 -59.414 12.233 C-59.416 9.936 -59.412 7.64 -59.407 5.344 C-59.406 4.034 -59.405 2.725 -59.404 1.376 C-59.277 -1.547 -59.277 -1.547 -58.277 -2.547 C-56.643 -2.634 -55.004 -2.654 -53.367 -2.645 C-52.378 -2.641 -51.388 -2.638 -50.369 -2.635 C-49.328 -2.626 -48.287 -2.618 -47.215 -2.609 C-46.692 -2.607 -46.692 -2.607 -44.049 -2.596 C-41.458 -2.584 -38.868 -2.567 -36.277 -2.547 C-35.617 -1.227 -34.957 0.093 -34.277 1.453 C-33.473 0.834 -32.669 0.216 -31.84 -0.422 C-22.616 -6.556 -9.086 -6.172 0 0 Z " fill="#4F2C53" transform="translate(573.27734375,77.546875)"/>
<path d="M0 0 C3.824 2.675 7.669 5.611 10.223 9.555 C10.245 13.087 9.43 14.328 7.043 16.941 C6.598 17.321 6.598 17.321 4.348 19.242 C3.906 19.626 3.906 19.626 1.668 21.566 C-3.278 25.588 -3.278 25.588 -5.652 25.43 C-8.45 24.278 -10.426 22.447 -12.777 20.555 C-17.392 17.863 -21.732 18.454 -26.777 19.555 C-30.257 20.992 -31.472 22.086 -33.527 25.242 C-35.948 31.657 -36.499 36.438 -33.801 42.727 C-31.589 46.677 -29.047 49.131 -24.777 50.555 C-17.927 51.251 -14.192 49.749 -8.777 45.555 C-8.117 44.895 -7.457 44.235 -6.777 43.555 C-2.746 43.84 -0.674 45.14 2.223 47.867 C2.903 48.494 3.584 49.12 4.285 49.766 C4.925 50.356 5.564 50.946 6.223 51.555 C7.879 52.901 9.541 54.241 11.223 55.555 C10.341 61.052 6.295 64.088 2.223 67.555 C-7.475 74.379 -18.235 75.856 -29.828 74.09 C-41.117 71.666 -49.009 65.865 -55.777 56.555 C-61.678 45.914 -62.518 33.645 -59.977 21.832 C-56.439 11.632 -49.881 3.296 -40.082 -1.484 C-26.784 -7.029 -12.65 -7.541 0 0 Z " fill="#4C2B51" transform="translate(306.77734375,78.4453125)"/>
<path d="M0 0 C0.958 0.005 1.917 0.01 2.904 0.016 C3.421 0.017 3.421 0.017 6.039 0.026 C7.127 0.034 8.216 0.042 9.338 0.051 C9.884 0.053 9.884 0.053 12.648 0.065 C15.357 0.077 18.066 0.093 20.775 0.114 C21.998 3.917 21.916 7.692 21.905 11.642 C21.906 12.395 21.908 13.149 21.91 13.925 C21.914 16.419 21.911 18.913 21.908 21.406 C21.909 23.154 21.91 24.901 21.911 26.648 C21.912 30.319 21.91 33.99 21.906 37.661 C21.9 42.318 21.903 46.975 21.909 51.632 C21.913 55.249 21.912 58.865 21.909 62.482 C21.908 64.195 21.909 65.909 21.911 67.623 C21.921 76.341 21.811 85.033 21.329 93.74 C21.291 94.469 21.252 95.198 21.212 95.95 C20.899 100.989 20.899 100.989 19.775 102.114 C18.153 102.213 16.526 102.244 14.9 102.246 C13.915 102.248 12.93 102.249 11.916 102.25 C10.879 102.246 9.843 102.243 8.775 102.239 C8.257 102.24 8.257 102.24 5.635 102.25 C4.65 102.249 3.665 102.248 2.65 102.246 C1.74 102.245 0.83 102.244 -0.108 102.243 C-2.225 102.114 -2.225 102.114 -3.225 101.114 C-3.326 98.014 -3.361 94.936 -3.354 91.836 C-3.356 90.862 -3.358 89.888 -3.36 88.885 C-3.364 85.649 -3.361 82.412 -3.358 79.176 C-3.358 76.938 -3.359 74.7 -3.361 72.461 C-3.362 67.764 -3.36 63.066 -3.355 58.368 C-3.35 52.332 -3.353 46.295 -3.359 40.259 C-3.362 35.635 -3.361 31.011 -3.359 26.388 C-3.358 24.161 -3.359 21.935 -3.361 19.708 C-3.364 16.602 -3.36 13.497 -3.354 10.391 C-3.356 9.461 -3.358 8.531 -3.36 7.573 C-3.336 0.17 -3.336 0.17 0 0 Z " fill="#4F2C54" transform="translate(672.224853515625,48.886474609375)"/>
<path d="M0 0 C2.5 0.125 2.5 0.125 3.5 1.125 C3.737 3.817 3.922 6.49 4.062 9.188 C4.106 9.946 4.149 10.705 4.193 11.486 C4.3 13.366 4.4 15.245 4.5 17.125 C5.077 16.176 5.655 15.227 6.25 14.25 C9.189 10.168 9.189 10.168 12.5 9.125 C17.315 8.452 21.255 8.399 25.5 10.875 C27.314 12.916 28.506 14.595 29.5 17.125 C30.16 14.815 30.82 12.505 31.5 10.125 C36.841 8.933 42.048 8.511 47.5 9.125 C50.633 11.265 52.019 13.668 53.5 17.125 C54.098 16.176 54.696 15.227 55.312 14.25 C57.5 11.125 57.5 11.125 60.5 9.125 C65.385 8.413 69.31 8.396 73.562 11 C76.146 13.834 76.653 15.382 76.688 19.125 C76.702 19.826 76.716 20.528 76.73 21.25 C76.5 23.125 76.5 23.125 74.5 25.125 C74.875 27.75 74.875 27.75 75.5 30.125 C71.495 33.66 68.385 33.682 63.203 33.551 C58.959 32.882 57.32 31.316 54.5 28.125 C54.335 27.63 54.335 27.63 53.5 25.125 C53.428 25.692 53.428 25.692 53.062 28.562 C52.5 32.125 52.5 32.125 51.5 33.125 C49 33.25 49 33.25 46.5 33.125 C44.441 31.066 45.086 26.908 44.938 24.062 C44.894 23.304 44.851 22.545 44.807 21.764 C44.7 19.884 44.6 18.005 44.5 16.125 C42.063 16.5 42.063 16.5 39.5 17.125 C37.659 20.807 38.03 25.193 37.781 29.254 C37.5 32.125 37.5 32.125 36.5 33.125 C34 33.25 34 33.25 31.5 33.125 C29.532 31.157 29.838 27.777 29.5 25.125 C28.902 26.074 28.304 27.023 27.688 28 C25.5 31.125 25.5 31.125 22.5 33.125 C17.413 33.802 12.943 33.95 8.438 31.375 C6.682 29.336 5.48 27.621 4.5 25.125 C3.84 27.435 3.18 29.745 2.5 32.125 C-4.085 33.614 -11.533 34.727 -17.625 31.438 C-20.842 27.47 -21.711 24.693 -21.375 19.625 C-20.802 15.481 -19.556 13.088 -16.5 10.125 C-13.975 8.863 -12.188 9.026 -9.375 9.062 C-8.465 9.072 -7.555 9.081 -6.617 9.09 C-5.919 9.101 -5.22 9.113 -4.5 9.125 C-4.356 7.826 -4.211 6.526 -4.062 5.188 C-3.506 0.175 -3.506 0.175 0 0 Z M64.5 15.125 C64.17 15.785 63.84 16.445 63.5 17.125 C64.82 16.795 66.14 16.465 67.5 16.125 C66.51 15.795 65.52 15.465 64.5 15.125 Z M-13.5 17.812 C-14.5 20.125 -14.5 20.125 -13.75 22.812 C-12.5 25.125 -12.5 25.125 -11.5 26.125 C-9.125 26.438 -9.125 26.438 -6.5 26.125 C-4.562 24.5 -4.562 24.5 -3.5 22.125 C-4.312 18.875 -4.312 18.875 -5.5 16.125 C-10.928 15.642 -10.928 15.642 -13.5 17.812 Z M12.5 17.188 C11.028 20.039 11.759 22.092 12.5 25.125 C14.48 25.785 16.46 26.445 18.5 27.125 C20.562 25.5 20.562 25.5 22.5 23.125 C22.25 19.875 22.25 19.875 21.5 17.125 C15.113 15.799 15.113 15.799 12.5 17.188 Z M62.5 24.125 C62.5 24.785 62.5 25.445 62.5 26.125 C65.51 27.059 66.367 27.169 69.5 26.125 C69.5 25.465 69.5 24.805 69.5 24.125 C67.19 24.125 64.88 24.125 62.5 24.125 Z " fill="#844867" transform="translate(180.5,180.875)"/>
<path d="M0 0 C2.5 0.125 2.5 0.125 3.5 1.125 C3.955 3.78 4.202 6.447 4.5 9.125 C5.103 9.079 5.707 9.032 6.328 8.984 C12.891 8.688 12.891 8.688 15.938 10.875 C17.351 12.91 18.524 14.849 19.5 17.125 C19.913 16.362 20.325 15.599 20.75 14.812 C22.528 12.082 23.755 10.817 26.5 9.125 C30.985 8.381 35.195 8.625 39.438 10.25 C41.999 12.579 43.162 14.957 44.5 18.125 C44.83 15.485 45.16 12.845 45.5 10.125 C47.875 9.5 47.875 9.5 50.5 9.125 C52.5 11.125 52.5 11.125 52.695 14.602 C52.682 15.985 52.658 17.367 52.625 18.75 C52.616 19.456 52.607 20.163 52.598 20.891 C52.574 22.636 52.538 24.38 52.5 26.125 C54.48 25.465 56.46 24.805 58.5 24.125 C58.53 23.625 58.53 23.625 58.684 21.098 C58.767 19.807 58.851 18.517 58.938 17.188 C59.019 15.9 59.1 14.612 59.184 13.285 C59.5 10.125 59.5 10.125 60.5 9.125 C62.166 9.081 63.834 9.085 65.5 9.125 C66.49 9.125 67.48 9.125 68.5 9.125 C69.16 9.125 69.82 9.125 70.5 9.125 C70.83 7.475 71.16 5.825 71.5 4.125 C73.15 4.125 74.8 4.125 76.5 4.125 C76.665 4.95 76.665 4.95 77.5 9.125 C78.304 9.104 79.109 9.084 79.938 9.062 C82.5 9.125 82.5 9.125 83.5 10.125 C83.625 12.625 83.625 12.625 83.5 15.125 C83.17 15.455 82.84 15.785 82.5 16.125 C80.85 16.125 79.2 16.125 77.5 16.125 C77.5 19.425 77.5 22.725 77.5 26.125 C79.15 26.125 80.8 26.125 82.5 26.125 C83.5 27.125 83.5 27.125 83.625 29.625 C83.5 32.125 83.5 32.125 82.5 33.125 C75.486 33.815 75.486 33.815 72 31.375 C69.702 26.397 70.19 21.52 70.5 16.125 C69.51 15.795 68.52 15.465 67.5 15.125 C67.439 16.341 67.379 17.556 67.316 18.809 C67.232 20.393 67.147 21.978 67.062 23.562 C67.023 24.365 66.984 25.167 66.943 25.994 C66.613 32.012 66.613 32.012 65.5 33.125 C62.877 33.332 60.314 33.449 57.688 33.5 C57.325 33.519 57.325 33.519 55.49 33.613 C51.57 33.678 49.903 33.514 47.035 30.746 C45.689 28.447 44.887 26.74 44.5 24.125 C44.294 24.496 44.294 24.496 43.25 26.375 C40.05 31.404 40.05 31.404 37.5 33.125 C33.05 33.878 28.594 34.188 24.484 32.102 C21.85 29.992 20.57 28.334 19.5 25.125 C19.428 25.692 19.428 25.692 19.062 28.562 C18.5 32.125 18.5 32.125 17.5 33.125 C15 33.25 15 33.25 12.5 33.125 C10.441 31.066 11.086 26.908 10.938 24.062 C10.894 23.304 10.851 22.545 10.807 21.764 C10.7 19.884 10.6 18.005 10.5 16.125 C8.52 16.785 6.54 17.445 4.5 18.125 C4.439 19.124 4.379 20.123 4.316 21.152 C4.233 22.443 4.149 23.733 4.062 25.062 C3.981 26.35 3.9 27.638 3.816 28.965 C3.5 32.125 3.5 32.125 2.5 33.125 C0 33.25 0 33.25 -2.5 33.125 C-4.408 31.217 -3.631 27.81 -3.633 25.281 C-3.634 24.597 -3.635 23.913 -3.636 23.208 C-3.636 21.758 -3.635 20.309 -3.63 18.86 C-3.625 16.634 -3.63 14.409 -3.637 12.184 C-3.636 10.779 -3.635 9.374 -3.633 7.969 C-3.632 6.682 -3.631 5.394 -3.629 4.068 C-3.458 0.173 -3.458 0.173 0 0 Z M28.5 16.125 C26.5 19.125 26.5 19.125 26.562 22.188 C27.5 25.125 27.5 25.125 29.812 26.688 C32.5 27.125 32.5 27.125 34.812 26.125 C36.5 24.125 36.5 24.125 36.875 21.062 C36.5 18.125 36.5 18.125 34.5 16.125 C31.5 15.812 31.5 15.812 28.5 16.125 Z " fill="#884A6B" transform="translate(334.5,180.875)"/>
<path d="M0 0 C2.5 0.125 2.5 0.125 3.5 1.125 C3.737 3.817 3.922 6.49 4.062 9.188 C4.106 9.946 4.149 10.705 4.193 11.486 C4.3 13.366 4.4 15.245 4.5 17.125 C5.098 16.176 5.696 15.227 6.312 14.25 C8.5 11.125 8.5 11.125 11.5 9.125 C16.187 8.442 20.239 8.494 24.5 10.625 C27.227 14.034 27.716 16.847 28.5 21.125 C29.49 20.135 30.48 19.145 31.5 18.125 C30.84 17.465 30.18 16.805 29.5 16.125 C29.688 13.625 29.688 13.625 30.5 11.125 C33.651 9.024 34.722 8.782 38.375 8.688 C39.218 8.648 40.061 8.608 40.93 8.566 C44.822 9.412 46.181 10.914 48.5 14.125 C49.111 17.237 49.02 20.217 48.875 23.375 C48.861 24.203 48.847 25.03 48.832 25.883 C48.683 31.942 48.683 31.942 47.5 33.125 C45.064 33.333 42.69 33.449 40.25 33.5 C39.915 33.519 39.915 33.519 38.223 33.613 C34.269 33.683 32.672 33.265 29.566 30.746 C27.693 28.37 26.829 27.082 26.5 24.125 C26.5 24.785 26.5 25.445 26.5 26.125 C26.188 28.625 26.188 28.625 25.5 31.125 C21.044 34.096 16.726 33.752 11.5 33.125 C7.87 31.051 6.026 29.009 4.5 25.125 C4.428 25.692 4.428 25.692 4.062 28.562 C3.5 32.125 3.5 32.125 2.5 33.125 C0 33.25 0 33.25 -2.5 33.125 C-4.408 31.217 -3.631 27.81 -3.633 25.281 C-3.634 24.597 -3.635 23.913 -3.636 23.208 C-3.636 21.758 -3.635 20.309 -3.63 18.86 C-3.625 16.634 -3.63 14.409 -3.637 12.184 C-3.636 10.779 -3.635 9.374 -3.633 7.969 C-3.632 6.682 -3.631 5.394 -3.629 4.068 C-3.458 0.173 -3.458 0.173 0 0 Z M15.5 15.125 C15.17 15.785 14.84 16.445 14.5 17.125 C15.82 16.795 17.14 16.465 18.5 16.125 C17.51 15.795 16.52 15.465 15.5 15.125 Z M37.5 15.125 C37.17 15.785 36.84 16.445 36.5 17.125 C37.82 16.795 39.14 16.465 40.5 16.125 C39.51 15.795 38.52 15.465 37.5 15.125 Z M36.5 23.125 C36.5 24.445 36.5 25.765 36.5 27.125 C38.438 26.812 38.438 26.812 40.5 26.125 C40.83 25.135 41.16 24.145 41.5 23.125 C39.85 23.125 38.2 23.125 36.5 23.125 Z M13.5 24.125 C13.5 24.785 13.5 25.445 13.5 26.125 C15.312 26.812 15.312 26.812 17.5 27.125 C19.25 25.688 19.25 25.688 20.5 24.125 C18.19 24.125 15.88 24.125 13.5 24.125 Z " fill="#844867" transform="translate(436.5,180.875)"/>
<path d="M0 0 C2.562 0.188 2.562 0.188 4.562 2.188 C4.188 4.125 4.188 4.125 3.562 6.188 C3.562 7.178 3.562 8.167 3.562 9.188 C5.212 8.857 6.863 8.528 8.562 8.188 C8.892 6.537 9.222 4.887 9.562 3.188 C11.438 2.562 11.438 2.562 13.562 2.188 C15.562 4.188 15.562 4.188 15.562 8.188 C16.387 8.352 16.387 8.352 20.562 9.188 C20.562 10.838 20.562 12.488 20.562 14.188 C18.913 14.518 17.262 14.847 15.562 15.188 C15.562 18.488 15.562 21.787 15.562 25.188 C17.212 25.517 18.863 25.847 20.562 26.188 C20.605 27.854 20.603 29.521 20.562 31.188 C18.69 33.06 16.065 32.424 13.57 32.516 C11.562 32.188 11.562 32.188 9.816 31.121 C7.881 28.136 8.279 25.504 8.375 22 C8.402 20.728 8.429 19.455 8.457 18.145 C8.492 17.169 8.527 16.193 8.562 15.188 C7.243 14.857 5.923 14.528 4.562 14.188 C4.532 14.795 4.532 14.795 4.379 17.871 C4.295 19.456 4.21 21.04 4.125 22.625 C4.086 23.427 4.046 24.23 4.006 25.057 C3.676 31.074 3.676 31.074 2.562 32.188 C0.062 32.312 0.062 32.312 -2.438 32.188 C-4.557 30.068 -3.856 25.568 -4 22.625 C-4.043 21.819 -4.086 21.012 -4.131 20.182 C-4.237 18.184 -4.338 16.186 -4.438 14.188 C-4.847 15.319 -5.257 16.451 -5.68 17.617 C-6.224 19.099 -6.768 20.581 -7.312 22.062 C-7.582 22.809 -7.851 23.555 -8.129 24.324 C-10.211 29.961 -10.211 29.961 -12.438 32.188 C-15.062 32.312 -15.062 32.312 -17.438 32.188 C-20.438 26.562 -20.438 26.562 -20.438 23.188 C-21.098 23.188 -21.757 23.188 -22.438 23.188 C-23.428 26.157 -24.418 29.127 -25.438 32.188 C-27.75 32.438 -27.75 32.438 -30.438 32.188 C-33.562 28.949 -34.804 24.939 -36.188 20.75 C-36.304 20.422 -36.304 20.422 -36.895 18.764 C-38.2 14.866 -38.686 12.139 -37.438 8.188 C-35.788 8.188 -34.137 8.188 -32.438 8.188 C-31.118 11.157 -29.798 14.127 -28.438 17.188 C-28.159 16.538 -28.159 16.538 -26.75 13.25 C-24.819 9.326 -24.819 9.326 -21.688 8.188 C-20.945 8.188 -20.202 8.188 -19.438 8.188 C-17.628 11.149 -15.993 14.077 -14.438 17.188 C-13.118 14.218 -11.798 11.248 -10.438 8.188 C-7.771 8.188 -5.104 8.188 -2.438 8.188 C-2.623 7.053 -2.809 5.919 -3 4.75 C-3.144 3.574 -3.289 2.399 -3.438 1.188 C-2.438 0.188 -2.438 0.188 0 0 Z " fill="#834767" transform="translate(308.4375,181.8125)"/>
<path d="M0 0 C0.619 0.639 1.237 1.279 1.875 1.938 C1.545 3.588 1.215 5.238 0.875 6.938 C-0.812 7.625 -0.812 7.625 -3.125 7.938 C-3.888 7.442 -4.651 6.947 -5.438 6.438 C-8.125 4.938 -8.125 4.938 -11.75 4.938 C-15.125 5.938 -15.125 5.938 -17.062 8.062 C-18.385 11.642 -18.607 14.148 -18.125 17.938 C-16.191 20.66 -14.819 21.688 -11.688 22.812 C-8.603 22.963 -6.818 22.433 -4.125 20.938 C-3.795 19.947 -3.465 18.958 -3.125 17.938 C-4.424 17.958 -5.724 17.979 -7.062 18 C-8.417 18.021 -9.773 18.009 -11.125 17.938 C-12.125 16.938 -12.125 16.938 -12.25 14.438 C-12.125 11.938 -12.125 11.938 -11.125 10.938 C-9.004 10.786 -6.876 10.716 -4.75 10.688 C-3.587 10.662 -2.425 10.636 -1.227 10.609 C1.875 10.938 1.875 10.938 3.789 12.453 C4.147 12.943 4.506 13.433 4.875 13.938 C5.287 13.174 5.7 12.411 6.125 11.625 C8.332 8.236 10.233 6.311 14.242 5.398 C20.734 5.176 20.734 5.176 23.859 7.262 C26.826 10.405 27.805 12.405 28.375 16.75 C27.875 19.938 27.875 19.938 25.875 21.938 C26.25 24.562 26.25 24.562 26.875 26.938 C22.87 30.473 19.76 30.495 14.578 30.363 C10.334 29.695 8.695 28.129 5.875 24.938 C5.545 23.947 5.215 22.958 4.875 21.938 C4.132 22.886 3.39 23.835 2.625 24.812 C0.624 27.37 -1.064 28.79 -4.125 29.938 C-6.965 30.238 -6.965 30.238 -10.062 30.25 C-11.082 30.267 -12.102 30.284 -13.152 30.301 C-18.118 29.694 -22.055 26.919 -25.176 23.012 C-27.297 18.377 -26.867 12.879 -26.125 7.938 C-23.795 3.218 -20.379 -0.935 -15.242 -2.715 C-9.793 -3.61 -4.604 -3.039 0 0 Z M15.875 11.938 C15.545 12.597 15.215 13.257 14.875 13.938 C15.7 14.102 15.7 14.102 19.875 14.938 C19.875 14.278 19.875 13.618 19.875 12.938 C18.555 12.607 17.235 12.278 15.875 11.938 Z M13.875 20.938 C13.875 21.597 13.875 22.257 13.875 22.938 C17.625 24.062 17.625 24.062 19.875 22.938 C19.875 22.278 19.875 21.618 19.875 20.938 C17.895 20.938 15.915 20.938 13.875 20.938 Z " fill="#834767" transform="translate(63.125,184.0625)"/>
<path d="M0 0 C0.339 -0.015 0.339 -0.015 2.053 -0.088 C5.469 -0.131 7.311 0.02 10.043 2.145 C11.317 3.824 12.518 5.559 13.688 7.312 C14.471 6.343 15.255 5.374 16.062 4.375 C17.6 2.473 18.48 1.416 20.688 0.312 C23.201 0.189 25.674 0.127 28.188 0.125 C28.532 0.119 28.532 0.119 30.277 0.088 C32.082 0.083 33.887 0.191 35.688 0.312 C38.159 2.784 37.944 3.524 37.953 6.926 C37.954 7.385 37.954 7.385 37.961 9.709 C37.953 10.671 37.945 11.634 37.938 12.625 C37.941 13.1 37.941 13.1 37.961 15.506 C37.944 21.511 37.734 25.87 33.75 30.625 C29.16 33.154 24.816 33.112 19.688 32.312 C16.5 30.312 16.5 30.312 14.688 28.312 C15.261 25.445 15.549 24.451 17.688 22.312 C16.367 20.662 15.048 19.012 13.688 17.312 C13.028 19.623 12.367 21.933 11.688 24.312 C10.021 24.355 8.354 24.353 6.688 24.312 C4.628 22.253 5.273 18.095 5.125 15.25 C5.082 14.491 5.039 13.733 4.994 12.951 C4.888 11.072 4.787 9.192 4.688 7.312 C2.25 7.688 2.25 7.688 -0.312 8.312 C-1.729 11.145 -1.659 13.787 -1.875 16.938 C-1.959 18.126 -2.043 19.315 -2.129 20.539 C-2.189 21.454 -2.25 22.37 -2.312 23.312 C-4.688 23.938 -4.688 23.938 -7.312 24.312 C-9.312 22.312 -9.312 22.312 -9.464 20.174 C-9.418 19.311 -9.372 18.448 -9.324 17.559 C-9.277 16.622 -9.23 15.686 -9.182 14.721 C-9.122 13.74 -9.062 12.76 -9 11.75 C-8.952 10.766 -8.903 9.782 -8.854 8.768 C-8.418 0.763 -8.132 0.114 0 0 Z M20.688 9.312 C20.312 11.75 20.312 11.75 20.688 14.312 C22.375 16.25 22.375 16.25 24.688 17.312 C27.375 16.75 27.375 16.75 29.688 15.312 C30.625 13.438 30.625 13.438 30.688 11.312 C29.75 9.062 29.75 9.062 28.688 7.312 C22.938 7.062 22.938 7.062 20.688 9.312 Z M20.688 23.312 C21.018 23.972 21.347 24.632 21.688 25.312 C23.997 25.312 26.308 25.312 28.688 25.312 C29.018 24.653 29.347 23.993 29.688 23.312 C26.717 23.312 23.747 23.312 20.688 23.312 Z " fill="#854868" transform="translate(527.3125,189.6875)"/>
<path d="M0 0 C2.562 0.188 2.562 0.188 4.562 2.188 C4.188 4.125 4.188 4.125 3.562 6.188 C3.562 8.878 3.579 11.568 3.598 14.258 C3.607 16.276 3.616 18.294 3.625 20.312 C3.633 21.34 3.642 22.367 3.65 23.426 C3.652 23.914 3.652 23.914 3.66 26.383 C3.663 26.831 3.663 26.831 3.676 29.102 C3.562 31.188 3.562 31.188 2.562 32.188 C0.062 32.312 0.062 32.312 -2.438 32.188 C-3.952 30.673 -3.651 29.263 -3.754 27.152 C-3.796 26.343 -3.838 25.535 -3.881 24.701 C-3.92 23.851 -3.959 23.001 -4 22.125 C-4.043 21.271 -4.086 20.417 -4.131 19.537 C-4.237 17.421 -4.338 15.304 -4.438 13.188 C-4.675 13.728 -4.912 14.268 -5.156 14.824 C-6.227 17.259 -7.301 19.692 -8.375 22.125 C-8.748 22.975 -9.121 23.825 -9.506 24.701 C-9.864 25.51 -10.221 26.319 -10.59 27.152 C-10.92 27.901 -11.25 28.65 -11.59 29.422 C-12.438 31.188 -12.438 31.188 -13.438 32.188 C-15.104 32.228 -16.771 32.23 -18.438 32.188 C-20.461 28.199 -22.457 24.198 -24.438 20.188 C-24.801 19.468 -25.165 18.749 -25.539 18.008 C-27.275 14.358 -27.728 12.06 -26.438 8.188 C-24.125 7.875 -24.125 7.875 -21.438 8.188 C-19.089 11.232 -17.771 14.598 -16.438 18.188 C-13.914 15.063 -12.165 11.807 -10.438 8.188 C-7.771 8.188 -5.104 8.188 -2.438 8.188 C-3.098 7.197 -3.757 6.208 -4.438 5.188 C-3.922 1.685 -3.698 0.284 0 0 Z " fill="#804664" transform="translate(512.4375,181.8125)"/>
<path d="M0 0 C2.438 0.188 2.438 0.188 3.438 1.188 C3.483 2.854 3.476 4.521 3.438 6.188 C3.438 7.507 3.438 8.827 3.438 10.188 C5.375 9.438 5.375 9.438 7.438 8.188 C8.188 6.062 8.188 6.062 8.438 4.188 C10.088 3.857 11.738 3.528 13.438 3.188 C13.767 4.838 14.097 6.488 14.438 8.188 C15.242 8.167 16.046 8.146 16.875 8.125 C19.438 8.188 19.438 8.188 20.438 9.188 C20.562 11.688 20.562 11.688 20.438 14.188 C20.108 14.518 19.778 14.847 19.438 15.188 C17.787 15.188 16.137 15.188 14.438 15.188 C14.438 18.488 14.438 21.787 14.438 25.188 C16.088 25.188 17.738 25.188 19.438 25.188 C20.438 26.188 20.438 26.188 20.562 28.688 C20.438 31.188 20.438 31.188 19.438 32.188 C12.423 32.877 12.423 32.877 8.938 30.438 C6.64 25.459 7.128 20.583 7.438 15.188 C6.118 14.528 4.798 13.868 3.438 13.188 C3.107 19.127 2.778 25.067 2.438 31.188 C0.787 31.517 -0.862 31.847 -2.562 32.188 C-3.562 31.188 -3.562 31.188 -3.676 29.102 C-3.671 28.205 -3.666 27.307 -3.66 26.383 C-3.657 25.407 -3.654 24.431 -3.65 23.426 C-3.642 22.398 -3.634 21.371 -3.625 20.312 C-3.62 19.293 -3.616 18.273 -3.611 17.223 C-3.603 15.326 -3.592 13.429 -3.578 11.532 C-3.543 6.253 -3.543 6.253 -4.188 4.125 C-4.311 3.486 -4.435 2.846 -4.562 2.188 C-2.562 0.188 -2.562 0.188 0 0 Z " fill="#884A6A" transform="translate(125.5625,181.8125)"/>
<path d="M0 0 C2.062 0.438 2.062 0.438 4 1 C4.33 2.65 4.66 4.3 5 6 C5.825 6.165 5.825 6.165 10 7 C10 8.65 10 10.3 10 12 C8.35 12.33 6.7 12.66 5 13 C5 16.3 5 19.6 5 23 C6.65 23.33 8.3 23.66 10 24 C10.043 25.666 10.041 27.334 10 29 C8.127 30.873 5.502 30.236 3.008 30.328 C1 30 1 30 -0.746 28.934 C-2.682 25.949 -2.284 23.316 -2.188 19.812 C-2.16 18.54 -2.133 17.268 -2.105 15.957 C-2.071 14.981 -2.036 14.005 -2 13 C-3.32 12.67 -4.64 12.34 -6 12 C-6.061 13.216 -6.121 14.431 -6.184 15.684 C-6.268 17.268 -6.353 18.853 -6.438 20.438 C-6.457 20.839 -6.457 20.839 -6.557 22.869 C-6.887 28.887 -6.887 28.887 -8 30 C-10.5 30.125 -10.5 30.125 -13 30 C-15.302 27.698 -14.233 22.216 -14.25 19.125 C-14.271 18.201 -14.291 17.276 -14.312 16.324 C-14.318 15.436 -14.323 14.548 -14.328 13.633 C-14.337 12.817 -14.347 12.001 -14.356 11.161 C-13.916 8.493 -13.168 7.577 -11 6 C-8.562 6.375 -8.562 6.375 -6 7 C-3.688 6.562 -3.688 6.562 -2 6 C-1.856 5.196 -1.711 4.391 -1.562 3.562 C-1 1 -1 1 0 0 Z " fill="#854868" transform="translate(319,184)"/>
<path d="M0 0 C3.666 1.355 5.309 3.172 7.375 6.375 C9 10 9 10 8.938 12.625 C7.865 15.341 6.664 17.596 5 20 C4.505 20.763 4.01 21.526 3.5 22.312 C-0.68 25.134 -5.134 24.824 -10 24 C-13.272 22.367 -15.26 20.042 -17.375 17.062 C-18.257 14.152 -18.364 12.034 -18 9 C-13.466 0.741 -9.071 -1.047 0 0 Z M-8 7 C-10 10 -10 10 -9.938 13.062 C-9 16 -9 16 -6.688 17.562 C-4 18 -4 18 -1.688 17 C0 15 0 15 0.375 11.938 C0 9 0 9 -2 7 C-5 6.688 -5 6.688 -8 7 Z " fill="#804564" transform="translate(371,190)"/>
<path d="M0 0 C1.65 0.33 3.3 0.66 5 1 C5.33 1.99 5.66 2.98 6 4 C8.562 5.188 8.562 5.188 11 6 C11 7.65 11 9.3 11 11 C9.35 11.33 7.7 11.66 6 12 C6 15.3 6 18.6 6 22 C7.65 22.33 9.3 22.66 11 23 C11.043 24.666 11.041 26.334 11 28 C9.127 29.873 6.502 29.236 4.008 29.328 C2 29 2 29 0.254 27.934 C-1.682 24.949 -1.284 22.316 -1.188 18.812 C-1.16 17.54 -1.133 16.268 -1.105 14.957 C-1.071 13.981 -1.036 13.005 -1 12 C-2.32 11.67 -3.64 11.34 -5 11 C-5 9.35 -5 7.7 -5 6 C-3.68 5.67 -2.36 5.34 -1 5 C-0.67 3.35 -0.34 1.7 0 0 Z " fill="#884A6A" transform="translate(96,185)"/>
<path d="M0 0 C2.5 0.125 2.5 0.125 3.5 1.125 C3.6 3.404 3.631 5.687 3.633 7.969 C3.634 8.653 3.635 9.337 3.636 10.042 C3.636 11.492 3.635 12.941 3.63 14.39 C3.625 16.616 3.63 18.841 3.637 21.066 C3.636 22.471 3.635 23.876 3.633 25.281 C3.632 26.568 3.631 27.856 3.629 29.182 C3.5 32.125 3.5 32.125 2.5 33.125 C0 33.25 0 33.25 -2.5 33.125 C-4.408 31.217 -3.631 27.81 -3.633 25.281 C-3.634 24.597 -3.635 23.913 -3.636 23.208 C-3.636 21.758 -3.635 20.309 -3.63 18.86 C-3.625 16.634 -3.63 14.409 -3.637 12.184 C-3.636 10.779 -3.635 9.374 -3.633 7.969 C-3.632 6.682 -3.631 5.394 -3.629 4.068 C-3.458 0.173 -3.458 0.173 0 0 Z " fill="#8D4D6E" transform="translate(436.5,180.875)"/>
<path d="M0 0 C0.598 0.227 1.196 0.454 1.812 0.688 C1.841 4.333 1.859 7.979 1.875 11.625 C1.883 12.666 1.892 13.707 1.9 14.779 C1.904 15.769 1.907 16.758 1.91 17.777 C1.915 18.694 1.921 19.61 1.926 20.554 C1.812 22.688 1.812 22.688 0.812 23.688 C-1.688 23.812 -1.688 23.812 -4.188 23.688 C-6.49 21.385 -5.42 15.903 -5.438 12.812 C-5.458 11.888 -5.479 10.964 -5.5 10.012 C-5.505 9.124 -5.51 8.235 -5.516 7.32 C-5.525 6.504 -5.534 5.689 -5.544 4.848 C-5.188 2.688 -5.188 2.688 -3.917 0.835 C-2.188 -0.312 -2.188 -0.312 0 0 Z " fill="#8D4C6E" transform="translate(514.1875,190.3125)"/>
<path d="M0 0 C0.598 0.227 1.196 0.454 1.812 0.688 C1.841 4.333 1.859 7.979 1.875 11.625 C1.883 12.666 1.892 13.707 1.9 14.779 C1.904 15.769 1.907 16.758 1.91 17.777 C1.915 18.694 1.921 19.61 1.926 20.554 C1.812 22.688 1.812 22.688 0.812 23.688 C-1.688 23.812 -1.688 23.812 -4.188 23.688 C-6.49 21.385 -5.42 15.903 -5.438 12.812 C-5.458 11.888 -5.479 10.964 -5.5 10.012 C-5.505 9.124 -5.51 8.235 -5.516 7.32 C-5.525 6.504 -5.534 5.689 -5.544 4.848 C-5.188 2.688 -5.188 2.688 -3.917 0.835 C-2.188 -0.312 -2.188 -0.312 0 0 Z " fill="#8D4C6E" transform="translate(310.1875,190.3125)"/>
<path d="M0 0 C2.562 0.188 2.562 0.188 4.562 2.188 C4.386 4.985 3.785 5.983 1.715 7.891 C0.984 8.401 0.253 8.912 -0.5 9.438 C-1.233 9.958 -1.967 10.479 -2.723 11.016 C-3.289 11.402 -3.854 11.789 -4.438 12.188 C-3.777 10.537 -3.118 8.887 -2.438 7.188 C-3.098 6.528 -3.757 5.868 -4.438 5.188 C-3.695 0.284 -3.695 0.284 0 0 Z " fill="#673851" transform="translate(512.4375,181.8125)"/>
<path d="M0 0 C2.562 0.188 2.562 0.188 4.562 2.188 C4.562 4 4.562 4 3.562 6.188 C1.621 7.922 -0.38 9.592 -2.438 11.188 C-3.098 11.847 -3.757 12.507 -4.438 13.188 C-4.272 12.589 -4.108 11.991 -3.938 11.375 C-3.332 8.724 -3.435 6.272 -3.5 3.562 C-3.414 0.312 -3.237 0.249 0 0 Z " fill="#683851" transform="translate(308.4375,181.8125)"/>
<path d="M0 0 C2.5 0.125 2.5 0.125 3.5 1.125 C3.795 3.923 3.957 5.508 2.25 7.812 C0.414 9.19 -1.408 10.187 -3.5 11.125 C-3.294 10.506 -3.088 9.887 -2.875 9.25 C-2.751 8.549 -2.627 7.847 -2.5 7.125 C-3.16 6.465 -3.82 5.805 -4.5 5.125 C-3.752 0.188 -3.752 0.188 0 0 Z " fill="#6C3A54" transform="translate(125.5,181.875)"/>
<path d="M0 0 C2.562 0.188 2.562 0.188 4.562 2.188 C4.188 4.812 4.188 4.812 3.562 7.188 C1.188 7.812 1.188 7.812 -1.438 8.188 C-3.438 6.188 -3.438 6.188 -3.625 3.625 C-3.373 0.348 -3.277 0.252 0 0 Z " fill="#753F5B" transform="translate(570.4375,205.8125)"/>
</svg>
